<svg width="24" height="16" viewBox="0 0 24 16" fill="none" xmlns="http://www.w3.org/2000/svg">
<path d="M21.9414 7.52986L16.3249 2.58518C16.2818 2.54748 16.2268 2.52637 16.1688 2.52637H14.8532C14.7432 2.52637 14.6926 2.6651 14.7759 2.73748L19.982 7.32176H2.6453C2.57989 7.32176 2.52637 7.37604 2.52637 7.44239V8.313C2.52637 8.313 2.57993 8.46782 2.64534 8.46782H19.9805L14.7744 13.0521C14.6911 13.126 14.7417 13.2632 14.8517 13.2632H16.212C16.2402 13.2632 16.2684 13.2527 16.2893 13.2331L21.9414 8.25972C21.9929 8.21433 22.0341 8.15826 22.0624 8.0953C22.0907 8.03235 22.1053 7.96397 22.1053 7.89479C22.1053 7.82561 22.0907 7.75723 22.0624 7.69428C22.0341 7.63132 21.9929 7.57525 21.9414 7.52986Z" fill="#2D5B7C"/>
</svg>
