<svg width="24" height="24" viewBox="0 0 24 24" fill="none" xmlns="http://www.w3.org/2000/svg">
<path d="M7.03122 18.8832L7.03122 20.6949C7.03122 20.852 7.21169 20.9387 7.33356 20.8426L17.8992 12.5902C17.989 12.5204 18.0616 12.431 18.1116 12.3289C18.1615 12.2267 18.1875 12.1145 18.1875 12.0008C18.1875 11.8871 18.1615 11.7749 18.1116 11.6727C18.0616 11.5705 17.989 11.4812 17.8992 11.4113L7.33356 3.159C7.20934 3.0629 7.03122 3.14962 7.03122 3.30665L7.03122 5.11837C7.03122 5.23322 7.08512 5.34337 7.17418 5.41368L15.6117 11.9996L7.17418 18.5879C7.08512 18.6582 7.03122 18.7684 7.03122 18.8832V18.8832Z" fill="#06A3D8"/>
</svg>
