<svg width="24" height="24" viewBox="0 0 24 24" fill="none" xmlns="http://www.w3.org/2000/svg">
<path d="M16.9688 18.8832L16.9688 20.6949C16.9688 20.852 16.7883 20.9387 16.6664 20.8426L6.10081 12.5902C6.01105 12.5204 5.93841 12.431 5.88844 12.3289C5.83847 12.2267 5.8125 12.1145 5.8125 12.0008C5.8125 11.8871 5.83847 11.7749 5.88844 11.6727C5.93841 11.5705 6.01105 11.4812 6.10081 11.4113L16.6664 3.159C16.7907 3.0629 16.9688 3.14962 16.9688 3.30665L16.9688 5.11837C16.9688 5.23322 16.9149 5.34337 16.8258 5.41368L8.38831 11.9996L16.8258 18.5879C16.9149 18.6582 16.9688 18.7684 16.9688 18.8832V18.8832Z" fill="#06A3D8"/>
</svg>
