<svg width="16" height="16" viewBox="0 0 16 16" fill="none" xmlns="http://www.w3.org/2000/svg">
<path d="M7.4522 13.0462C7.51336 13.135 7.5952 13.2076 7.69066 13.2578C7.78613 13.308 7.89236 13.3342 8.0002 13.3342C8.10805 13.3342 8.21428 13.308 8.30974 13.2578C8.40521 13.2076 8.48704 13.135 8.5482 13.0462L14.5482 4.3795C14.6177 4.27953 14.6584 4.16245 14.666 4.04097C14.6735 3.91948 14.6477 3.79825 14.5912 3.69043C14.5347 3.58261 14.4498 3.49233 14.3456 3.4294C14.2414 3.36647 14.1219 3.33331 14.0002 3.3335H2.0002C1.87876 3.334 1.75976 3.36759 1.65599 3.43067C1.55222 3.49375 1.4676 3.58392 1.41125 3.69149C1.35489 3.79906 1.32893 3.91996 1.33614 4.04118C1.34336 4.16241 1.38348 4.27937 1.4522 4.3795L7.4522 13.0462Z" fill="#06A3D8"/>
</svg>
