<svg width="12" height="12" viewBox="0 0 12 12" fill="none" xmlns="http://www.w3.org/2000/svg">
<path d="M11.0722 5.56741L12 4.63962L8.75273 3.24793L7.36038 0L6.43259 0.927793L6.89649 3.24793L4.72267 5.42174L2.35398 0.366787L1.4754 1.24537L2.25621 7.88755L0.400629 9.74379C0.275292 9.86484 0.175318 10.0096 0.106542 10.1698C0.0377656 10.3299 0.00156374 10.5021 4.95911e-05 10.6763C-0.00146456 10.8505 0.0317397 11.0234 0.097723 11.1846C0.163706 11.3459 0.261148 11.4924 0.384363 11.6156C0.507578 11.7389 0.654098 11.8363 0.815374 11.9023C0.976651 11.9683 1.14945 12.0015 1.3237 12C1.49794 11.9984 1.67014 11.9622 1.83025 11.8935C1.99035 11.8247 2.13516 11.7247 2.25621 11.5994L4.16101 9.69458L10.8032 10.476L11.6332 9.64536L6.61762 7.2373L8.75207 5.10286L11.0722 5.56741V5.56741Z" fill="#95969A"/>
</svg>
