<svg width="12" height="12" viewBox="0 0 12 12" fill="none" xmlns="http://www.w3.org/2000/svg">
<path d="M11.94 5.34L10.8 5.46C10.8 5.64 10.8 5.82 10.8 6C10.8 8.64 8.64 10.8 6 10.8C3.36 10.8 1.2 8.64 1.2 6C1.2 3.36 3.36 1.2 6 1.2C6.18 1.2 6.3 1.2 6.48 1.2L6.6 0C6.42 0 6.18 0 6 0C2.7 0 0 2.7 0 6C0 9.3 2.7 12 6 12C9.3 12 12 9.3 12 6C12 5.76 12 5.58 11.94 5.34Z" fill="#95969A"/>
<path d="M6.60039 5.39991V2.3999H5.40039V6.59991H8.40039V5.39991H6.60039Z" fill="#95969A"/>
<path d="M8.3998 0V1.2H9.9598L7.7998 3.36L8.63981 4.2L10.7998 2.04V3.6H11.9998V0H8.3998Z" fill="#95969A"/>
</svg>
