<svg width="12" height="12" viewBox="0 0 12 12" fill="none" xmlns="http://www.w3.org/2000/svg">
<path d="M0.927792 6.43259L0 7.36038L3.24727 8.75207L4.63962 12L5.56741 11.0722L5.10351 8.75207L7.27733 6.57826L9.64602 11.6332L10.5246 10.7546L9.74379 4.11245L11.5994 2.25621C11.7247 2.13516 11.8247 1.99035 11.8935 1.83025C11.9622 1.67014 11.9984 1.49794 12 1.3237C12.0015 1.14945 11.9683 0.97665 11.9023 0.815374C11.8363 0.654097 11.7389 0.507577 11.6156 0.384362C11.4924 0.261148 11.3459 0.163706 11.1846 0.0977222C11.0233 0.0317389 10.8505 -0.0014646 10.6763 4.95477e-05C10.5021 0.00156369 10.3299 0.0377652 10.1698 0.106541C10.0096 0.175317 9.86484 0.275291 9.74379 0.400628L7.83899 2.30542L1.19681 1.52395L0.366786 2.35464L5.38238 4.7627L3.24793 6.89714L0.927792 6.43259Z" fill="#95969A"/>
</svg>
