<svg width="12" height="12" viewBox="0 0 12 12" fill="none" xmlns="http://www.w3.org/2000/svg">
<path d="M6.35156 10.0781H7.05469V12.0008H6.35156V10.0781Z" fill="#95969A"/>
<path d="M4.94531 10.0781H5.64844V12.0008H4.94531V10.0781Z" fill="#95969A"/>
<path d="M8.36719 0H3.63281C3.43866 0 3.28125 0.157406 3.28125 0.351562V12H4.24219V9.72656C4.24219 9.53241 4.39959 9.375 4.59375 9.375H6H7.40625C7.60041 9.375 7.75781 9.53241 7.75781 9.72656V12H8.71875V0.351562C8.71875 0.157406 8.56134 0 8.36719 0ZM4.94531 8.32031C4.94531 8.51447 4.78791 8.67188 4.59375 8.67188C4.39959 8.67188 4.24219 8.51447 4.24219 8.32031V7.61719C4.24219 7.42303 4.39959 7.26562 4.59375 7.26562C4.78791 7.26562 4.94531 7.42303 4.94531 7.61719V8.32031ZM4.94531 6.21094C4.94531 6.40509 4.78791 6.5625 4.59375 6.5625C4.39959 6.5625 4.24219 6.40509 4.24219 6.21094V5.50781C4.24219 5.31366 4.39959 5.15625 4.59375 5.15625C4.78791 5.15625 4.94531 5.31366 4.94531 5.50781V6.21094ZM6.35156 8.32031C6.35156 8.51447 6.19416 8.67188 6 8.67188C5.80584 8.67188 5.64844 8.51447 5.64844 8.32031V7.61719C5.64844 7.42303 5.80584 7.26562 6 7.26562C6.19416 7.26562 6.35156 7.42303 6.35156 7.61719V8.32031ZM6.35156 6.21094C6.35156 6.40509 6.19416 6.5625 6 6.5625C5.80584 6.5625 5.64844 6.40509 5.64844 6.21094V5.50781C5.64844 5.31366 5.80584 5.15625 6 5.15625C6.19416 5.15625 6.35156 5.31366 6.35156 5.50781V6.21094ZM7.75781 8.32031C7.75781 8.51447 7.60041 8.67188 7.40625 8.67188C7.21209 8.67188 7.05469 8.51447 7.05469 8.32031V7.61719C7.05469 7.42303 7.21209 7.26562 7.40625 7.26562C7.60041 7.26562 7.75781 7.42303 7.75781 7.61719V8.32031ZM7.75781 6.21094C7.75781 6.40509 7.60041 6.5625 7.40625 6.5625C7.21209 6.5625 7.05469 6.40509 7.05469 6.21094V5.50781C7.05469 5.31366 7.21209 5.15625 7.40625 5.15625C7.60041 5.15625 7.75781 5.31366 7.75781 5.50781V6.21094ZM4.94531 4.10156C4.94531 4.29572 4.78791 4.45312 4.59375 4.45312C4.39959 4.45312 4.24219 4.29572 4.24219 4.10156V3.39844C4.24219 3.20428 4.39959 3.04688 4.59375 3.04688C4.78791 3.04688 4.94531 3.20428 4.94531 3.39844V4.10156ZM6.35156 4.10156C6.35156 4.29572 6.19416 4.45312 6 4.45312C5.80584 4.45312 5.64844 4.29572 5.64844 4.10156V3.39844C5.64844 3.20428 5.80584 3.04688 6 3.04688C6.19416 3.04688 6.35156 3.20428 6.35156 3.39844V4.10156ZM7.75781 4.10156C7.75781 4.29572 7.60041 4.45312 7.40625 4.45312C7.21209 4.45312 7.05469 4.29572 7.05469 4.10156V3.39844C7.05469 3.20428 7.21209 3.04688 7.40625 3.04688C7.60041 3.04688 7.75781 3.20428 7.75781 3.39844V4.10156ZM4.94531 1.99219C4.94531 2.18634 4.78791 2.34375 4.59375 2.34375C4.39959 2.34375 4.24219 2.18634 4.24219 1.99219V1.28906C4.24219 1.09491 4.39959 0.9375 4.59375 0.9375C4.78791 0.9375 4.94531 1.09491 4.94531 1.28906V1.99219ZM6.35156 1.99219C6.35156 2.18634 6.19416 2.34375 6 2.34375C5.80584 2.34375 5.64844 2.18634 5.64844 1.99219V1.28906C5.64844 1.09491 5.80584 0.9375 6 0.9375C6.19416 0.9375 6.35156 1.09491 6.35156 1.28906V1.99219ZM7.75781 1.99219C7.75781 2.18634 7.60041 2.34375 7.40625 2.34375C7.21209 2.34375 7.05469 2.18634 7.05469 1.99219V1.28906C7.05469 1.09491 7.21209 0.9375 7.40625 0.9375C7.60041 0.9375 7.75781 1.09491 7.75781 1.28906V1.99219Z" fill="#95969A"/>
<path d="M11.6484 4.6875H9.42188V12H11.6484C11.8426 12 12 11.8426 12 11.6484V5.03906C12 4.84491 11.8426 4.6875 11.6484 4.6875ZM11.0625 9.25781C11.0625 9.45197 10.9051 9.60938 10.7109 9.60938C10.5168 9.60938 10.3594 9.45197 10.3594 9.25781V8.55469C10.3594 8.36053 10.5168 8.20312 10.7109 8.20312C10.9051 8.20312 11.0625 8.36053 11.0625 8.55469V9.25781ZM11.0625 7.14844C11.0625 7.34259 10.9051 7.5 10.7109 7.5C10.5168 7.5 10.3594 7.34259 10.3594 7.14844V6.44531C10.3594 6.25116 10.5168 6.09375 10.7109 6.09375C10.9051 6.09375 11.0625 6.25116 11.0625 6.44531V7.14844Z" fill="#95969A"/>
<path d="M0.351562 4.6875C0.157406 4.6875 0 4.84491 0 5.03906V11.6484C0 11.8426 0.157406 12 0.351562 12H2.57812V4.6875H0.351562ZM1.64062 9.25781C1.64062 9.45197 1.48322 9.60938 1.28906 9.60938C1.09491 9.60938 0.9375 9.45197 0.9375 9.25781V8.55469C0.9375 8.36053 1.09491 8.20312 1.28906 8.20312C1.48322 8.20312 1.64062 8.36053 1.64062 8.55469V9.25781ZM1.64062 7.14844C1.64062 7.34259 1.48322 7.5 1.28906 7.5C1.09491 7.5 0.9375 7.34259 0.9375 7.14844V6.44531C0.9375 6.25116 1.09491 6.09375 1.28906 6.09375C1.48322 6.09375 1.64062 6.25116 1.64062 6.44531V7.14844Z" fill="#95969A"/>
</svg>
